<svg width="17" height="17" viewBox="0 0 17 17" fill="none" xmlns="http://www.w3.org/2000/svg">
<path d="M0.5 2.125C0.5 3.22957 1.39543 4.125 2.5 4.125C3.60457 4.125 4.5 3.22957 4.5 2.125C4.5 1.02043 3.60457 0.125 2.5 0.125C1.39543 0.125 0.5 1.02043 0.5 2.125ZM6.5 14.125C6.5 15.2296 7.39543 16.125 8.5 16.125C9.60457 16.125 10.5 15.2296 10.5 14.125C10.5 13.0204 9.60457 12.125 8.5 12.125C7.39543 12.125 6.5 13.0204 6.5 14.125ZM0.5 14.125C0.5 15.2296 1.39543 16.125 2.5 16.125C3.60457 16.125 4.5 15.2296 4.5 14.125C4.5 13.0204 3.60457 12.125 2.5 12.125C1.39543 12.125 0.5 13.0204 0.5 14.125ZM0.5 8.125C0.5 9.22957 1.39543 10.125 2.5 10.125C3.60457 10.125 4.5 9.22957 4.5 8.125C4.5 7.02043 3.60457 6.125 2.5 6.125C1.39543 6.125 0.5 7.02043 0.5 8.125ZM6.5 8.125C6.5 9.22957 7.39543 10.125 8.5 10.125C9.60457 10.125 10.5 9.22957 10.5 8.125C10.5 7.02043 9.60457 6.125 8.5 6.125C7.39543 6.125 6.5 7.02043 6.5 8.125ZM14.5 0.125C13.3954 0.125 12.5 1.02043 12.5 2.125C12.5 3.22957 13.3954 4.125 14.5 4.125C15.6046 4.125 16.5 3.22957 16.5 2.125C16.5 1.02043 15.6046 0.125 14.5 0.125ZM6.5 2.125C6.5 3.22957 7.39543 4.125 8.5 4.125C9.60457 4.125 10.5 3.22957 10.5 2.125C10.5 1.02043 9.60457 0.125 8.5 0.125C7.39543 0.125 6.5 1.02043 6.5 2.125ZM12.5 8.125C12.5 9.22957 13.3954 10.125 14.5 10.125C15.6046 10.125 16.5 9.22957 16.5 8.125C16.5 7.02043 15.6046 6.125 14.5 6.125C13.3954 6.125 12.5 7.02043 12.5 8.125ZM12.5 14.125C12.5 15.2296 13.3954 16.125 14.5 16.125C15.6046 16.125 16.5 15.2296 16.5 14.125C16.5 13.0204 15.6046 12.125 14.5 12.125C13.3954 12.125 12.5 13.0204 12.5 14.125Z" fill="#616A8B"/>
</svg>
